<svg xmlns="http://www.w3.org/2000/svg" viewBox="0 0 560 360" role="img" aria-labelledby="title desc">
  <title id="title">WeihaoStudio AuthInk</title>
  <desc id="desc">水墨弯月、山水与星辰组成的 WeihaoStudio 品牌标志</desc>
  <defs>
    <filter id="ink" x="-20%" y="-20%" width="140%" height="140%">
      <feTurbulence type="fractalNoise" baseFrequency="0.014 0.075" numOctaves="2" seed="8" result="noise"/>
      <feDisplacementMap in="SourceGraphic" in2="noise" scale="2.6" xChannelSelector="R" yChannelSelector="B"/>
    </filter>
    <linearGradient id="moon" x1="0" y1="0" x2="1" y2="1">
      <stop offset="0" stop-color="currentColor" stop-opacity=".94"/>
      <stop offset=".58" stop-color="currentColor" stop-opacity=".56"/>
      <stop offset="1" stop-color="currentColor" stop-opacity=".12"/>
    </linearGradient>
    <linearGradient id="mountain" x1="0" y1="0" x2="0" y2="1">
      <stop offset="0" stop-color="currentColor" stop-opacity=".52"/>
      <stop offset="1" stop-color="currentColor" stop-opacity=".05"/>
    </linearGradient>
  </defs>
  <g fill="none" stroke="currentColor" filter="url(#ink)">
    <path d="M365 58c-83-25-173 16-212 91-43 84-10 185 71 229-58-16-106-56-131-109-43-93 2-204 100-247 57-25 122-19 172 36Z" fill="url(#moon)" stroke="none"/>
    <path d="M126 238c44-18 75-61 108-99 25 22 42 49 59 78 17-25 34-46 53-61 25 24 48 55 72 88" stroke-width="5" stroke-linecap="round" opacity=".52"/>
    <path d="M147 255c53-9 104-7 152 1 52 9 103 10 153-1" stroke-width="3" stroke-linecap="round" opacity=".25"/>
    <path d="M170 266c38-4 70-2 102 3 34 6 67 7 101 3" stroke-width="2" stroke-linecap="round" opacity=".17"/>
  </g>
  <g fill="currentColor">
    <path d="m352 79 5 13 13 5-13 5-5 13-5-13-13-5 13-5Z" opacity=".86"/>
    <path d="m404 122 3 8 8 3-8 3-3 8-3-8-8-3 8-3Z" opacity=".58"/>
    <circle cx="389" cy="72" r="3" opacity=".42"/>
    <circle cx="434" cy="153" r="2.5" opacity=".32"/>
  </g>
  <text x="280" y="326" fill="currentColor" text-anchor="middle" font-family="'LXGW WenKai','Noto Serif SC',serif" font-size="54" font-weight="400" letter-spacing="2">WeihaoStudio</text>
</svg>
