<svg xmlns="http://www.w3.org/2000/svg" viewBox="0 0 1920 1080" preserveAspectRatio="xMidYMid slice" role="img" aria-label="浅色水墨山水背景">
  <defs>
    <linearGradient id="paper" x1="0" y1="0" x2="1" y2="1">
      <stop offset="0" stop-color="#fcfbf8"/>
      <stop offset=".55" stop-color="#f8f6f0"/>
      <stop offset="1" stop-color="#efede7"/>
    </linearGradient>
    <linearGradient id="mist" x1="0" y1="0" x2="0" y2="1">
      <stop offset="0" stop-color="#ffffff" stop-opacity="0"/>
      <stop offset=".48" stop-color="#ffffff" stop-opacity=".64"/>
      <stop offset="1" stop-color="#ffffff" stop-opacity=".95"/>
    </linearGradient>
    <filter id="soft" x="-20%" y="-20%" width="140%" height="140%">
      <feGaussianBlur stdDeviation="8"/>
    </filter>
    <filter id="ink" x="-20%" y="-20%" width="140%" height="140%">
      <feTurbulence type="fractalNoise" baseFrequency="0.009 0.04" numOctaves="3" seed="12" result="noise"/>
      <feDisplacementMap in="SourceGraphic" in2="noise" scale="6"/>
    </filter>
  </defs>
  <rect width="1920" height="1080" fill="url(#paper)"/>
  <g fill="#31312f" filter="url(#ink)">
    <path d="M-40 800 210 584l117 92 196-286 206 303 115-123 234 254Z" opacity=".13"/>
    <path d="M-80 880 292 654l131 96 186-221 166 222 132-86 259 244Z" opacity=".09"/>
    <path d="M753 843 973 614l158 146 145-211 211 308 120-89 283 221Z" opacity=".08"/>
    <path d="M1175 861 1394 644l122 92 143-170 236 297 84-60v277h-860Z" opacity=".06"/>
  </g>
  <g fill="#1f201f" opacity=".24">
    <path d="M280 719c18-65 44-116 75-157-13 59-7 111 13 156Z"/>
    <path d="M325 720c10-47 27-87 51-120-8 43-3 81 11 119Z"/>
    <path d="M452 738c8-37 22-71 42-101-5 34 0 68 14 99Z"/>
  </g>
  <g fill="none" stroke="#343432" stroke-linecap="round" opacity=".28">
    <path d="M138 390c32-22 58-23 82-5-24-8-43-4-58 10 17-4 31-2 44 7" stroke-width="4"/>
    <path d="M825 274c23-14 43-14 61-1-17-5-31-2-42 8 12-3 23-2 32 4" stroke-width="3"/>
  </g>
  <g fill="#353532" opacity=".24">
    <path d="M111 834c38 0 68 5 88 15-22 9-52 13-91 13-16-5-16-17 3-28Z"/>
    <path d="m163 826 2-55 5 55Z"/>
    <path d="m165 774 48 31-48 6Z" opacity=".7"/>
  </g>
  <rect y="500" width="1920" height="580" fill="url(#mist)"/>
  <ellipse cx="1030" cy="722" rx="820" ry="160" fill="#fff" opacity=".44" filter="url(#soft)"/>
</svg>
