<svg xmlns="http://www.w3.org/2000/svg" viewBox="0 0 1200 180" preserveAspectRatio="none">
  <mask id="brush-mask" maskUnits="userSpaceOnUse" x="0" y="0" width="1200" height="180">
    <rect width="1200" height="180" fill="#000"/>

    <!-- Tight horizontal brush belly: dense centre, irregular short bristle edges. -->
    <path fill="#fff" d="M67 78C96 67 122 71 151 66C194 59 235 70 278 65C329 59 373 70 422 64C474 58 518 68 568 63C623 58 670 70 724 64C778 58 824 69 878 65C925 61 967 71 1010 69C1033 68 1052 70 1067 76L1044 114C1019 120 991 117 966 123C926 133 886 119 846 126C802 134 763 119 720 126C673 133 634 119 589 126C542 133 503 119 458 126C410 133 372 119 326 126C278 133 239 119 194 126C152 132 116 121 80 127C59 130 39 126 25 118L37 91C48 86 56 82 67 78Z"/>

    <!-- Left pressure-start: uneven short hairs instead of a round cap. -->
    <path fill="#fff" d="M18 100L61 79L72 84L26 110Z M10 113L53 98L60 103L15 122Z M24 85L68 66L76 72L30 95Z M37 123L82 112L89 118L42 133Z M49 71L92 56L99 63L55 81Z M4 121L40 115L44 121L8 131Z M63 133L103 125L109 130L68 141Z"/>

    <!-- Upper and lower loose bristles around the core. -->
    <path fill="#fff" d="M128 67L181 53L187 59L135 74Z M246 65L311 52L318 58L251 73Z M389 64L449 50L456 56L394 72Z M520 63L589 51L596 57L526 71Z M669 64L726 51L733 57L675 72Z M808 65L879 53L886 59L814 73Z M932 67L995 57L1002 64L939 75Z"/>
    <path fill="#fff" d="M142 126L205 136L211 131L149 119Z M304 126L370 139L377 133L311 119Z M466 126L530 139L537 133L473 119Z M630 126L695 140L702 133L637 119Z M788 126L852 139L859 133L795 119Z M925 124L980 135L987 129L932 118Z"/>

    <!-- Right finish: separated bristles with deliberate gaps, no solid triangle. -->
    <path fill="#fff" d="M1015 75L1194 63L1133 85L1042 92Z M1027 87L1200 82L1145 100L1038 104Z M1017 100L1184 108L1118 116L1024 112Z M1002 111L1168 129L1090 128L1007 120Z M990 120L1135 147L1059 138L995 129Z M1034 68L1163 45L1107 69L1044 78Z M1018 128L1101 159L1046 145Z"/>

    <!-- 28 irregular dry-brush voids: mostly edge-biased, varied lengths and angles. -->
    <path fill="#000" d="M118 78L151 73L158 76L124 83Z M174 72L214 68L221 71L178 78Z M229 82L257 77L264 80L234 87Z M285 70L341 66L347 70L289 77Z M358 83L381 79L386 82L363 88Z M414 71L462 67L469 70L419 77Z M493 81L524 76L531 79L498 86Z M553 70L604 66L611 69L558 76Z M644 82L668 77L674 80L649 87Z M705 71L756 68L762 71L710 77Z M793 82L827 77L833 81L798 88Z M862 72L914 69L920 72L867 78Z M949 82L977 78L983 81L954 88Z"/>
    <path fill="#000" d="M145 112L182 118L187 115L150 106Z M209 119L231 123L236 120L214 113Z M272 108L318 115L324 111L278 103Z M345 119L377 125L382 121L350 113Z M429 108L456 112L461 109L434 102Z M486 119L532 126L538 122L491 114Z M574 109L609 114L615 110L579 103Z M655 118L683 123L689 119L660 112Z M730 109L776 115L782 111L735 103Z M812 118L840 123L846 119L817 112Z M884 108L927 114L933 110L889 103Z M952 117L977 121L983 117L957 111Z"/>
    <path fill="#000" d="M93 91L111 87L116 90L98 96Z M1014 91L1039 87L1044 90L1019 96Z M1049 106L1082 101L1088 104L1054 111Z"/>
  </mask>
  <rect width="1200" height="180" fill="#fff" mask="url(#brush-mask)"/>
</svg>
